<mxfile host="embed.diagrams.net" modified="2023-07-16T21:08:59.657Z" agent="Mozilla/5.0 (Macintosh; Intel Mac OS X 10_15_7) AppleWebKit/537.36 (KHTML, like Gecko) Chrome/114.0.0.0 Safari/537.36" etag="WtsLOu3FfwiQif6pTgHJ" version="21.6.2" type="embed">
  <diagram name="Page-1" id="90a13364-a465-7bf4-72fc-28e22215d7a0">
    <mxGraphModel dx="1715" dy="1057" grid="1" gridSize="10" guides="1" tooltips="1" connect="1" arrows="1" fold="1" page="1" pageScale="1.5" pageWidth="1169" pageHeight="826" background="none" math="0" shadow="0">
      <root>
        <mxCell id="0" style=";html=1;" />
        <mxCell id="1" style=";html=1;" parent="0" />
        <mxCell id="3a17f1ce550125da-14" style="edgeStyle=elbowEdgeStyle;rounded=0;html=1;startArrow=none;startFill=0;jettySize=auto;orthogonalLoop=1;fontSize=18;elbow=vertical;strokeWidth=2;" parent="1" source="3a17f1ce550125da-2" target="3a17f1ce550125da-5" edge="1">
          <mxGeometry relative="1" as="geometry" />
        </mxCell>
        <mxCell id="2" value="&lt;font style=&quot;font-size: 14px;&quot;&gt;SPI&lt;/font&gt;" style="edgeLabel;html=1;align=center;verticalAlign=middle;resizable=0;points=[];" parent="3a17f1ce550125da-14" vertex="1" connectable="0">
          <mxGeometry x="-0.1959" y="1" relative="1" as="geometry">
            <mxPoint x="6" y="1" as="offset" />
          </mxGeometry>
        </mxCell>
        <mxCell id="3a17f1ce550125da-15" style="edgeStyle=elbowEdgeStyle;rounded=0;html=1;startArrow=classic;startFill=1;jettySize=auto;orthogonalLoop=1;fontSize=18;elbow=vertical;endArrow=classic;endFill=1;entryX=0;entryY=0.5;entryDx=0;entryDy=0;strokeWidth=2;" parent="1" source="3a17f1ce550125da-2" target="7" edge="1">
          <mxGeometry relative="1" as="geometry" />
        </mxCell>
        <mxCell id="4" value="&lt;font style=&quot;font-size: 14px;&quot;&gt;Serial port&lt;/font&gt;" style="edgeLabel;html=1;align=center;verticalAlign=middle;resizable=0;points=[];" parent="3a17f1ce550125da-15" vertex="1" connectable="0">
          <mxGeometry x="-0.2211" y="-1" relative="1" as="geometry">
            <mxPoint x="13" y="-1" as="offset" />
          </mxGeometry>
        </mxCell>
        <mxCell id="3a17f1ce550125da-2" value="Raspberry Pi 4" style="whiteSpace=wrap;html=1;shadow=1;fontSize=18;fillColor=#f5f5f5;strokeColor=#666666;" parent="1" vertex="1">
          <mxGeometry x="720" y="290" width="170" height="280" as="geometry" />
        </mxCell>
        <mxCell id="3a17f1ce550125da-5" value="LCD" style="whiteSpace=wrap;html=1;shadow=1;fontSize=18;fillColor=#f5f5f5;strokeColor=#666666;" parent="1" vertex="1">
          <mxGeometry x="969" y="320" width="120" height="60" as="geometry" />
        </mxCell>
        <mxCell id="3a17f1ce550125da-6" value="Arduino NANO" style="whiteSpace=wrap;html=1;shadow=1;fontSize=18;fillColor=#f5f5f5;strokeColor=#666666;" parent="1" vertex="1">
          <mxGeometry x="1200" y="442" width="213" height="96" as="geometry" />
        </mxCell>
        <mxCell id="3a17f1ce550125da-7" value="IMU&lt;br&gt;BNO055" style="whiteSpace=wrap;html=1;shadow=1;fontSize=18;fillColor=#f5f5f5;strokeColor=#666666;" parent="1" vertex="1">
          <mxGeometry x="942" y="720" width="137" height="70" as="geometry" />
        </mxCell>
        <mxCell id="3a17f1ce550125da-20" style="edgeStyle=elbowEdgeStyle;rounded=0;html=1;startArrow=none;startFill=0;jettySize=auto;orthogonalLoop=1;fontSize=18;elbow=vertical;strokeWidth=2;strokeColor=#FF0000;entryX=0;entryY=0.25;entryDx=0;entryDy=0;" parent="1" target="3a17f1ce550125da-2" edge="1">
          <mxGeometry relative="1" as="geometry">
            <Array as="points">
              <mxPoint x="700" y="360" />
            </Array>
            <mxPoint x="680" y="250" as="sourcePoint" />
            <mxPoint x="710" y="354" as="targetPoint" />
          </mxGeometry>
        </mxCell>
        <mxCell id="3a17f1ce550125da-8" value="DC-DC&lt;br style=&quot;border-color: var(--border-color);&quot;&gt;Buck Converter&lt;br&gt;5V 4A" style="whiteSpace=wrap;html=1;shadow=1;fontSize=18;fillColor=#f5f5f5;strokeColor=#666666;" parent="1" vertex="1">
          <mxGeometry x="490" y="210" width="160" height="80" as="geometry" />
        </mxCell>
        <mxCell id="3a17f1ce550125da-10" value="Servo Driver PCA9685" style="whiteSpace=wrap;html=1;shadow=1;fontSize=18;fillColor=#f5f5f5;strokeColor=#666666;" parent="1" vertex="1">
          <mxGeometry x="732.5" y="690" width="145" height="120" as="geometry" />
        </mxCell>
        <mxCell id="3a17f1ce550125da-18" style="edgeStyle=elbowEdgeStyle;rounded=0;html=1;startArrow=none;startFill=0;jettySize=auto;orthogonalLoop=1;fontSize=18;elbow=vertical;strokeColor=#FF8000;strokeWidth=2;" parent="1" source="3a17f1ce550125da-11" target="3a17f1ce550125da-10" edge="1">
          <mxGeometry relative="1" as="geometry" />
        </mxCell>
        <mxCell id="3a17f1ce550125da-11" value="DC-DC&lt;br&gt;Buck Converter&lt;br&gt;300W 7V" style="whiteSpace=wrap;html=1;shadow=1;fontSize=18;fillColor=#f5f5f5;strokeColor=#666666;" parent="1" vertex="1">
          <mxGeometry x="490" y="710" width="160" height="80" as="geometry" />
        </mxCell>
        <mxCell id="14" style="edgeStyle=orthogonalEdgeStyle;rounded=0;orthogonalLoop=1;jettySize=auto;html=1;exitX=1;exitY=0.5;exitDx=0;exitDy=0;entryX=0;entryY=0.5;entryDx=0;entryDy=0;strokeColor=#FF0000;strokeWidth=2;" parent="1" source="5" target="15" edge="1">
          <mxGeometry relative="1" as="geometry">
            <mxPoint x="707" y="130" as="targetPoint" />
          </mxGeometry>
        </mxCell>
        <mxCell id="5" value="DC-DC&lt;br style=&quot;border-color: var(--border-color);&quot;&gt;Buck Converter&lt;br&gt;5V 3A" style="whiteSpace=wrap;html=1;shadow=1;fontSize=18;fillColor=#f5f5f5;strokeColor=#666666;" parent="1" vertex="1">
          <mxGeometry x="490" y="100" width="160" height="80" as="geometry" />
        </mxCell>
        <mxCell id="7" value="Level Shifter" style="whiteSpace=wrap;html=1;shadow=1;fontSize=18;fillColor=#f5f5f5;strokeColor=#666666;" parent="1" vertex="1">
          <mxGeometry x="1022" y="460" width="120" height="60" as="geometry" />
        </mxCell>
        <mxCell id="8" style="edgeStyle=elbowEdgeStyle;rounded=0;html=1;startArrow=classic;startFill=1;jettySize=auto;orthogonalLoop=1;fontSize=18;elbow=horizontal;endArrow=classic;endFill=1;entryX=0;entryY=0.5;entryDx=0;entryDy=0;exitX=1;exitY=0.5;exitDx=0;exitDy=0;strokeWidth=2;" parent="1" source="7" target="3a17f1ce550125da-6" edge="1">
          <mxGeometry relative="1" as="geometry">
            <mxPoint x="1107" y="590" as="sourcePoint" />
            <mxPoint x="1227" y="590" as="targetPoint" />
          </mxGeometry>
        </mxCell>
        <mxCell id="10" style="edgeStyle=elbowEdgeStyle;rounded=0;html=1;startArrow=none;startFill=0;jettySize=auto;orthogonalLoop=1;fontSize=18;elbow=vertical;entryX=0.5;entryY=0;entryDx=0;entryDy=0;exitX=1;exitY=0.5;exitDx=0;exitDy=0;strokeColor=#FF0000;strokeWidth=2;" parent="1" source="3a17f1ce550125da-8" target="3a17f1ce550125da-6" edge="1">
          <mxGeometry relative="1" as="geometry">
            <Array as="points">
              <mxPoint x="980" y="250" />
            </Array>
            <mxPoint x="730" y="250" as="sourcePoint" />
            <mxPoint x="590" y="250" as="targetPoint" />
          </mxGeometry>
        </mxCell>
        <mxCell id="12" style="edgeStyle=elbowEdgeStyle;rounded=0;html=1;startArrow=none;startFill=0;jettySize=auto;orthogonalLoop=1;fontSize=18;elbow=vertical;strokeWidth=2;strokeColor=#00CC00;" parent="1" edge="1">
          <mxGeometry relative="1" as="geometry">
            <Array as="points">
              <mxPoint x="947" y="548" />
            </Array>
            <mxPoint x="890" y="548" as="sourcePoint" />
            <mxPoint x="1050" y="520" as="targetPoint" />
          </mxGeometry>
        </mxCell>
        <mxCell id="15" value="Fans" style="whiteSpace=wrap;html=1;shadow=1;fontSize=18;fillColor=#f5f5f5;strokeColor=#666666;" parent="1" vertex="1">
          <mxGeometry x="700" y="110" width="120" height="60" as="geometry" />
        </mxCell>
        <mxCell id="17" style="edgeStyle=elbowEdgeStyle;rounded=0;html=1;startArrow=none;startFill=0;jettySize=auto;orthogonalLoop=1;fontSize=18;elbow=vertical;exitX=1.001;exitY=0.921;exitDx=0;exitDy=0;exitPerimeter=0;strokeWidth=2;strokeColor=#00CC00;" parent="1" source="3a17f1ce550125da-2" edge="1">
          <mxGeometry relative="1" as="geometry">
            <Array as="points">
              <mxPoint x="983.96" y="548" />
            </Array>
            <mxPoint x="890" y="547.0400000000002" as="sourcePoint" />
            <mxPoint x="1050" y="720" as="targetPoint" />
          </mxGeometry>
        </mxCell>
        <mxCell id="22" value="&lt;font style=&quot;font-size: 14px;&quot;&gt;3.3 V&lt;/font&gt;" style="edgeLabel;html=1;align=center;verticalAlign=middle;resizable=0;points=[];" parent="17" vertex="1" connectable="0">
          <mxGeometry x="-0.8496" relative="1" as="geometry">
            <mxPoint x="26" as="offset" />
          </mxGeometry>
        </mxCell>
        <mxCell id="20" style="edgeStyle=elbowEdgeStyle;rounded=0;html=1;startArrow=none;startFill=0;jettySize=auto;orthogonalLoop=1;fontSize=18;elbow=vertical;entryX=0.803;entryY=-0.008;entryDx=0;entryDy=0;entryPerimeter=0;strokeWidth=2;strokeColor=#00CC00;" parent="1" target="3a17f1ce550125da-10" edge="1">
          <mxGeometry relative="1" as="geometry">
            <Array as="points">
              <mxPoint x="923.24" y="609.16" />
            </Array>
            <mxPoint x="983.24" y="547.16" as="sourcePoint" />
            <mxPoint x="860" y="689.9999999999999" as="targetPoint" />
          </mxGeometry>
        </mxCell>
        <mxCell id="23" style="edgeStyle=elbowEdgeStyle;rounded=0;html=1;startArrow=none;startFill=0;jettySize=auto;orthogonalLoop=1;fontSize=18;elbow=vertical;exitX=1;exitY=0.5;exitDx=0;exitDy=0;endArrow=none;endFill=0;strokeColor=#FF0000;strokeWidth=2;" parent="1" source="3a17f1ce550125da-8" edge="1">
          <mxGeometry relative="1" as="geometry">
            <Array as="points">
              <mxPoint x="920" y="250" />
            </Array>
            <mxPoint x="670" y="270" as="sourcePoint" />
            <mxPoint x="1120" y="360" as="targetPoint" />
          </mxGeometry>
        </mxCell>
        <mxCell id="24" style="edgeStyle=elbowEdgeStyle;rounded=0;html=1;startArrow=none;startFill=0;jettySize=auto;orthogonalLoop=1;fontSize=18;elbow=vertical;strokeColor=#FF0000;strokeWidth=2;entryX=0.9;entryY=-0.017;entryDx=0;entryDy=0;entryPerimeter=0;" parent="1" edge="1">
          <mxGeometry relative="1" as="geometry">
            <Array as="points">
              <mxPoint x="1140" y="420" />
            </Array>
            <mxPoint x="1120" y="350" as="sourcePoint" />
            <mxPoint x="1120" y="458.98" as="targetPoint" />
          </mxGeometry>
        </mxCell>
        <mxCell id="27" style="edgeStyle=elbowEdgeStyle;rounded=0;html=1;startArrow=none;startFill=0;jettySize=auto;orthogonalLoop=1;fontSize=18;elbow=vertical;strokeColor=#FF8000;strokeWidth=2;entryX=1;entryY=0.75;entryDx=0;entryDy=0;exitX=0.5;exitY=0;exitDx=0;exitDy=0;" parent="1" source="44" target="3a17f1ce550125da-6" edge="1">
          <mxGeometry relative="1" as="geometry">
            <mxPoint x="1490" y="580" as="sourcePoint" />
            <mxPoint x="1633" y="442.33" as="targetPoint" />
            <Array as="points">
              <mxPoint x="1490" y="514" />
            </Array>
          </mxGeometry>
        </mxCell>
        <mxCell id="28" value="&lt;font style=&quot;font-size: 14px;&quot;&gt;A1&lt;/font&gt;" style="edgeLabel;html=1;align=center;verticalAlign=middle;resizable=0;points=[];" parent="27" vertex="1" connectable="0">
          <mxGeometry x="0.6244" y="1" relative="1" as="geometry">
            <mxPoint x="-46" y="-2" as="offset" />
          </mxGeometry>
        </mxCell>
        <mxCell id="32" value="Battery" style="whiteSpace=wrap;html=1;shadow=1;fontSize=18;fillColor=#f5f5f5;strokeColor=#666666;" parent="1" vertex="1">
          <mxGeometry x="115" y="141" width="132" height="97" as="geometry" />
        </mxCell>
        <mxCell id="33" style="edgeStyle=orthogonalEdgeStyle;rounded=0;orthogonalLoop=1;jettySize=auto;html=1;exitX=1;exitY=0.5;exitDx=0;exitDy=0;entryX=0;entryY=0.5;entryDx=0;entryDy=0;strokeColor=#7F00FF;strokeWidth=2;" parent="1" source="47" target="5" edge="1">
          <mxGeometry relative="1" as="geometry">
            <mxPoint x="470" y="199.76" as="targetPoint" />
            <mxPoint x="420" y="199.76" as="sourcePoint" />
          </mxGeometry>
        </mxCell>
        <mxCell id="34" style="edgeStyle=orthogonalEdgeStyle;rounded=0;orthogonalLoop=1;jettySize=auto;html=1;exitX=1;exitY=0.5;exitDx=0;exitDy=0;entryX=0;entryY=0.5;entryDx=0;entryDy=0;strokeColor=#7F00FF;strokeWidth=2;" parent="1" source="47" target="3a17f1ce550125da-8" edge="1">
          <mxGeometry relative="1" as="geometry">
            <mxPoint x="500" y="150" as="targetPoint" />
            <mxPoint x="420" y="210" as="sourcePoint" />
          </mxGeometry>
        </mxCell>
        <mxCell id="35" style="edgeStyle=orthogonalEdgeStyle;rounded=0;orthogonalLoop=1;jettySize=auto;html=1;entryX=0;entryY=0.5;entryDx=0;entryDy=0;strokeColor=#7F00FF;strokeWidth=2;exitX=0.5;exitY=1;exitDx=0;exitDy=0;" parent="1" source="42" target="3a17f1ce550125da-11" edge="1">
          <mxGeometry relative="1" as="geometry">
            <mxPoint x="500" y="260" as="targetPoint" />
            <mxPoint x="420" y="490" as="sourcePoint" />
            <Array as="points">
              <mxPoint x="450" y="750" />
            </Array>
          </mxGeometry>
        </mxCell>
        <mxCell id="36" style="edgeStyle=orthogonalEdgeStyle;rounded=0;orthogonalLoop=1;jettySize=auto;html=1;strokeColor=#7F00FF;strokeWidth=2;entryX=0.5;entryY=1;entryDx=0;entryDy=0;" parent="1" target="45" edge="1">
          <mxGeometry relative="1" as="geometry">
            <mxPoint x="1510" y="640" as="targetPoint" />
            <mxPoint x="450" y="250" as="sourcePoint" />
            <Array as="points">
              <mxPoint x="450" y="360" />
              <mxPoint x="370" y="360" />
              <mxPoint x="370" y="890" />
              <mxPoint x="1552" y="890" />
            </Array>
          </mxGeometry>
        </mxCell>
        <mxCell id="42" value="Emergency Stop Switch" style="whiteSpace=wrap;html=1;shadow=1;fontSize=18;fillColor=#f5f5f5;strokeColor=#666666;" parent="1" vertex="1">
          <mxGeometry x="390" y="610" width="120" height="60" as="geometry" />
        </mxCell>
        <mxCell id="43" style="edgeStyle=orthogonalEdgeStyle;rounded=0;orthogonalLoop=1;jettySize=auto;html=1;exitX=1;exitY=0.5;exitDx=0;exitDy=0;entryX=0.5;entryY=0;entryDx=0;entryDy=0;strokeColor=#7F00FF;strokeWidth=2;" parent="1" source="47" target="42" edge="1">
          <mxGeometry relative="1" as="geometry">
            <mxPoint x="500" y="260" as="targetPoint" />
            <mxPoint x="420" y="210" as="sourcePoint" />
          </mxGeometry>
        </mxCell>
        <mxCell id="45" value="Voltage Divider" style="whiteSpace=wrap;html=1;shadow=1;fontSize=18;fillColor=#f5f5f5;strokeColor=#666666;" parent="1" vertex="1">
          <mxGeometry x="1492" y="700" width="120" height="60" as="geometry" />
        </mxCell>
        <mxCell id="46" value="" style="edgeStyle=elbowEdgeStyle;rounded=0;html=1;startArrow=none;startFill=0;jettySize=auto;orthogonalLoop=1;fontSize=18;elbow=vertical;strokeColor=#FF8000;strokeWidth=2;endArrow=classic;endFill=1;entryX=0.5;entryY=1;entryDx=0;entryDy=0;" parent="1" target="44" edge="1">
          <mxGeometry relative="1" as="geometry">
            <mxPoint x="690" y="750" as="sourcePoint" />
            <mxPoint x="1460" y="760" as="targetPoint" />
            <Array as="points">
              <mxPoint x="1070" y="870" />
            </Array>
          </mxGeometry>
        </mxCell>
        <mxCell id="44" value="Voltage Divider" style="whiteSpace=wrap;html=1;shadow=1;fontSize=18;fillColor=#f5f5f5;strokeColor=#666666;" parent="1" vertex="1">
          <mxGeometry x="1410" y="610" width="120" height="60" as="geometry" />
        </mxCell>
        <mxCell id="3a17f1ce550125da-16" style="edgeStyle=elbowEdgeStyle;rounded=0;html=1;startArrow=none;startFill=0;jettySize=auto;orthogonalLoop=1;fontSize=18;elbow=vertical;endArrow=classic;endFill=1;strokeWidth=2;" parent="1" source="3a17f1ce550125da-2" target="3a17f1ce550125da-7" edge="1">
          <mxGeometry relative="1" as="geometry">
            <Array as="points">
              <mxPoint x="900" y="640" />
            </Array>
          </mxGeometry>
        </mxCell>
        <mxCell id="3a17f1ce550125da-17" style="edgeStyle=elbowEdgeStyle;rounded=0;html=1;startArrow=classic;startFill=1;jettySize=auto;orthogonalLoop=1;fontSize=18;endArrow=classic;endFill=1;exitX=0.5;exitY=0;exitDx=0;exitDy=0;entryX=0.5;entryY=1;entryDx=0;entryDy=0;strokeWidth=2;" parent="1" source="3a17f1ce550125da-10" target="3a17f1ce550125da-2" edge="1">
          <mxGeometry relative="1" as="geometry">
            <Array as="points" />
            <mxPoint x="810" y="690" as="sourcePoint" />
            <mxPoint x="740" y="620" as="targetPoint" />
          </mxGeometry>
        </mxCell>
        <mxCell id="3" value="&lt;font style=&quot;font-size: 14px;&quot;&gt;I2C&lt;/font&gt;" style="edgeLabel;html=1;align=center;verticalAlign=middle;resizable=0;points=[];" parent="3a17f1ce550125da-17" vertex="1" connectable="0">
          <mxGeometry x="0.54" y="-3" relative="1" as="geometry">
            <mxPoint x="-3" y="12" as="offset" />
          </mxGeometry>
        </mxCell>
        <mxCell id="47" value="Power Switch" style="whiteSpace=wrap;html=1;shadow=1;fontSize=18;fillColor=#f5f5f5;strokeColor=#666666;" parent="1" vertex="1">
          <mxGeometry x="290" y="160" width="120" height="60" as="geometry" />
        </mxCell>
        <mxCell id="48" style="edgeStyle=orthogonalEdgeStyle;rounded=0;orthogonalLoop=1;jettySize=auto;html=1;exitX=1;exitY=0.5;exitDx=0;exitDy=0;entryX=0;entryY=0.5;entryDx=0;entryDy=0;strokeColor=#7F00FF;strokeWidth=2;" edge="1" parent="1" source="32" target="47">
          <mxGeometry relative="1" as="geometry">
            <mxPoint x="500" y="150" as="targetPoint" />
            <mxPoint x="420" y="200" as="sourcePoint" />
          </mxGeometry>
        </mxCell>
        <mxCell id="49" style="edgeStyle=elbowEdgeStyle;rounded=0;html=1;startArrow=none;startFill=0;jettySize=auto;orthogonalLoop=1;fontSize=18;elbow=vertical;strokeColor=#7F00FF;strokeWidth=2;entryX=1;entryY=0.312;entryDx=0;entryDy=0;exitX=0.5;exitY=0;exitDx=0;exitDy=0;entryPerimeter=0;" edge="1" parent="1" source="45" target="3a17f1ce550125da-6">
          <mxGeometry relative="1" as="geometry">
            <mxPoint x="1470" y="576" as="sourcePoint" />
            <mxPoint x="1413" y="480" as="targetPoint" />
            <Array as="points">
              <mxPoint x="1480" y="472" />
            </Array>
          </mxGeometry>
        </mxCell>
        <mxCell id="50" value="&lt;font style=&quot;font-size: 14px;&quot;&gt;A0&lt;/font&gt;" style="edgeLabel;html=1;align=center;verticalAlign=middle;resizable=0;points=[];" vertex="1" connectable="0" parent="49">
          <mxGeometry x="0.6244" y="1" relative="1" as="geometry">
            <mxPoint x="-87" y="-2" as="offset" />
          </mxGeometry>
        </mxCell>
      </root>
    </mxGraphModel>
  </diagram>
</mxfile>
